<svg id="图层_1" data-name="图层 1" xmlns="http://www.w3.org/2000/svg" viewBox="0 0 135.03 136.95"><defs><style>.cls-1{fill:#b4b4b4;}</style></defs><title>耳机</title><path class="cls-1" d="M842,676.33a67.58,67.58,0,0,0-67.5,67.5v18.84a5.64,5.64,0,0,0,0,.59v39.05a11,11,0,0,0,11,11h20.41a12,12,0,0,0,12-12V769.7a12,12,0,0,0-12-12H788.47V743.83a53.5,53.5,0,0,1,107,0v13.84H878.09a12,12,0,0,0-12,12v31.56a12,12,0,0,0,12,12H898.5a11,11,0,0,0,11-11V743.83A67.58,67.58,0,0,0,842,676.33Z" transform="translate(-774.44 -676.33)"/></svg>