<svg id="图层_1" data-name="图层 1" xmlns="http://www.w3.org/2000/svg" viewBox="0 0 16 18.63"><defs><style>.cls-1{fill:#333;}.cls-2{fill:#f36649;}</style></defs><title>登录icon@2x</title><g id="每日一听"><g id="登录"><g id="登录icon"><g id="Group-5"><g id="Group-3"><g id="Group-4"><g id="Rectangle-10"><path class="cls-1" d="M11.25,18.63H4.75A4.76,4.76,0,0,1,0,13.88V4.75A4.76,4.76,0,0,1,4.75,0h6.5A4.76,4.76,0,0,1,16,4.75v9.13A4.76,4.76,0,0,1,11.25,18.63ZM4.75,1.5A3.25,3.25,0,0,0,1.5,4.75v9.13a3.25,3.25,0,0,0,3.25,3.25h6.5a3.25,3.25,0,0,0,3.25-3.25V4.75A3.25,3.25,0,0,0,11.25,1.5H4.75Z"/></g><g id="Rectangle-11"><path class="cls-2" d="M5,5h6a1,1,0,0,1,1,1h0a1,1,0,0,1-1,1H5A1,1,0,0,1,4,6H4A1,1,0,0,1,5,5Z"/></g><g id="Rectangle-11-Copy-2"><path class="cls-2" d="M5,11H8a1,1,0,0,1,1,1H9a1,1,0,0,1-1,1H5a1,1,0,0,1-1-1H4A1,1,0,0,1,5,11Z"/></g></g></g></g></g></g></g></svg>