<?xml version="1.0" encoding="UTF-8"?>
<svg width="18px" height="19px" viewBox="0 0 18 19" version="1.1" xmlns="http://www.w3.org/2000/svg" xmlns:xlink="http://www.w3.org/1999/xlink">
    <!-- Generator: Sketch 51.1 (57501) - http://www.bohemiancoding.com/sketch -->
    <title>密码icon@2x</title>
    <desc>Created with Sketch.</desc>
    <defs></defs>
    <g id="每日一听" stroke="none" stroke-width="1" fill="none" fill-rule="evenodd">
        <g id="登录" transform="translate(-34.000000, -276.000000)">
            <g id="密码icon" transform="translate(32.000000, 275.000000)">
                <g id="Group-3" transform="translate(2.000000, 1.000000)">
                    <g id="密码-(2)" fill-rule="nonzero">
                        <path d="M9,18.9806604 L2.49834906,18.9806604 C2.13962264,18.9806604 1.79150943,18.9254717 1.46674528,18.7747642 C0.685613208,18.4139151 0.214386792,17.8089623 0.0530660377,16.9620283 C0.0254716981,16.815566 0.0191037736,16.6669811 0.0191037736,16.5183962 L0.0191037736,8.86839623 C0.0191037736,8.21886792 0.229245283,7.64787736 0.672877358,7.17028302 C1.07830189,6.73514151 1.58349057,6.48891509 2.17146226,6.41674528 C2.26910377,6.40400943 2.36674528,6.39976415 2.46438679,6.39976415 C2.68514151,6.40188679 2.90377358,6.39976415 3.1245283,6.39976415 C3.18183962,6.39976415 3.18183962,6.39976415 3.19882075,6.34457547 C3.23915094,6.22570755 3.25825472,6.10259434 3.26674528,5.97948113 C3.27948113,5.82028302 3.28584906,5.65896226 3.29646226,5.49976415 C3.36014151,4.62523585 3.54693396,3.78254717 3.93325472,2.99292453 C4.61462264,1.61533019 5.70141509,0.713207547 7.1745283,0.273820755 C7.5990566,0.146462264 8.03632075,0.0742924528 8.47783019,0.0403301887 C8.88325472,0.00849056604 9.29080189,0.00849056604 9.69622642,0.0445754717 C10.5622642,0.120990566 11.3837264,0.348113208 12.1351415,0.793867925 C13.0054245,1.30966981 13.6485849,2.03773585 14.092217,2.94198113 C14.3554245,3.47476415 14.5273585,4.03726415 14.6377358,4.62099057 C14.7099057,5.00306604 14.7502358,5.38726415 14.7693396,5.77358491 C14.7778302,5.93278302 14.7948113,6.09410377 14.8372642,6.2490566 C14.8478774,6.28301887 14.8606132,6.31698113 14.8691038,6.3509434 C14.879717,6.39339623 14.9051887,6.40400943 14.9476415,6.40400943 C15.1471698,6.40188679 15.3445755,6.40400943 15.5441038,6.40400943 C15.6587264,6.40400943 15.7733491,6.4125 15.8879717,6.42735849 C16.4950472,6.51438679 17.0023585,6.78820755 17.4014151,7.25306604 C17.7856132,7.70306604 17.9808962,8.22735849 17.9808962,8.81957547 C17.9830189,11.4007075 17.9830189,13.9818396 17.9808962,16.5629717 C17.9808962,17.7070755 17.182783,18.6877358 16.0641509,18.9275943 C15.9304245,18.9551887 15.7966981,18.9742925 15.6587264,18.9764151 C15.5950472,18.9764151 15.5292453,18.9785377 15.465566,18.9785377 C13.3110849,18.9806604 11.1566038,18.9806604 9,18.9806604 Z M9.00212264,7.90471698 L2.51533019,7.90471698 C2.475,7.90471698 2.43466981,7.90471698 2.39433962,7.90683962 C1.98254717,7.92806604 1.63867925,8.21462264 1.54316038,8.61792453 C1.52193396,8.70707547 1.51981132,8.79834906 1.51981132,8.88962264 L1.51981132,16.5820755 C1.52617925,17.0002358 1.81698113,17.3610849 2.2245283,17.4608491 C2.31580189,17.4820755 2.40919811,17.4863208 2.50259434,17.4863208 L15.578066,17.4863208 C15.9707547,17.4820755 16.3167453,17.2273585 16.4419811,16.8558962 C16.478066,16.7455189 16.4908019,16.6330189 16.4908019,16.5162736 L16.4908019,8.87476415 L16.4908019,8.81745283 C16.4801887,8.39504717 16.2021226,8.04268868 15.7988208,7.93443396 C15.7054245,7.90896226 15.6099057,7.90683962 15.5143868,7.90683962 C13.3408019,7.90471698 11.1714623,7.90471698 9.00212264,7.90471698 Z M9.02759434,6.40400943 L13.103066,6.40400943 C13.1221698,6.40400943 13.1412736,6.40188679 13.1603774,6.40400943 C13.192217,6.40825472 13.2070755,6.39339623 13.2176887,6.36367925 C13.2431604,6.28938679 13.2643868,6.2129717 13.275,6.13443396 C13.3068396,5.91792453 13.3068396,5.70141509 13.2919811,5.48278302 C13.2622642,5.01792453 13.1582547,4.57216981 12.9799528,4.14127358 C12.3898585,2.72122642 11.0462264,1.6875 9.47334906,1.53042453 C9.03396226,1.48584906 8.59882075,1.50919811 8.16792453,1.6004717 C7.3634434,1.7745283 6.65872642,2.14386792 6.06650943,2.71485849 C5.21533019,3.53419811 4.76108491,4.53396226 4.74198113,5.72051887 C4.73773585,5.92216981 4.7504717,6.12169811 4.81839623,6.31485849 C4.84811321,6.40188679 4.84811321,6.40188679 4.93726415,6.40188679 C6.30212264,6.40400943 7.66485849,6.40400943 9.02759434,6.40400943 Z" id="Shape" fill="#333333"></path>
                        <path d="M9.74929245,12.996934 C9.74929245,13.3365566 9.74716981,13.6761792 9.74929245,14.0158019 C9.75141509,14.2811321 9.66438679,14.5103774 9.47122642,14.6908019 C9.20377358,14.9370283 8.88962264,15.0091981 8.54787736,14.8839623 C8.20825472,14.7608491 8.01509434,14.5103774 7.9620283,14.1516509 C7.95566038,14.1134434 7.95353774,14.0752358 7.95353774,14.0370283 C7.95353774,13.3408019 7.95141509,12.6466981 7.95353774,11.9504717 C7.95353774,11.5535377 8.20188679,11.2139151 8.57334906,11.0929245 C9.13584906,10.9082547 9.72382075,11.309434 9.74716981,11.9016509 C9.75778302,12.1775943 9.74929245,12.4556604 9.75141509,12.7337264 C9.74929245,12.8186321 9.74929245,12.907783 9.74929245,12.996934 Z" id="Shape" fill="#F36649"></path>
                    </g>
                </g>
            </g>
        </g>
    </g>
</svg>